<svg width="354" height="100" viewBox="0 0 354 100" fill="none" xmlns="http://www.w3.org/2000/svg">
<g clip-path="url(#clip0_2848_248585)">
<path d="M113.748 32.8765V1.16077H95.8049V32.8765C95.8049 35.5053 95.1075 37.6317 93.7175 39.2558C92.3226 40.8847 90.5717 41.6943 88.4551 41.6943C86.3384 41.6943 84.4315 40.8652 82.8854 39.2168C81.3394 37.5683 80.5639 35.4516 80.5639 32.8765V1.16077H62.6211V32.8765C62.6211 37.6219 63.6941 41.7821 65.8351 45.3619C67.9713 48.9514 70.9853 51.7216 74.8821 53.6773C78.774 55.6379 83.2756 56.6182 88.3819 56.6182C93.4883 56.6182 97.9459 55.6379 101.765 53.6773C105.579 51.7216 108.534 48.9514 110.622 45.3619C112.714 41.7772 113.753 37.6171 113.753 32.8765H113.748Z" fill="#1E2864"/>
<path d="M29.3943 56.6182C33.2618 56.6182 37.4268 55.9501 41.8894 54.6089C46.3519 53.2677 50.1024 51.5655 53.1457 49.5025V26.8435H42.5722V26.8289H32.6327V37.6951H37.7487V39.8361C34.9639 41.07 32.5936 41.6943 30.633 41.6943C28.3115 41.6943 26.229 41.1139 24.3709 39.9532C22.5127 38.7924 21.0544 37.1976 20.001 35.159C18.9378 33.1204 18.411 30.8135 18.411 28.2335C18.411 25.6535 18.928 23.4393 19.9571 21.43C20.991 19.4157 22.4346 17.8307 24.2928 16.6699C26.151 15.5092 28.2091 14.9337 30.4819 14.9337C32.7546 14.9337 35.0322 15.4604 37.4805 16.5187C39.9288 17.5771 42.0601 19.006 43.8646 20.8106L53.9992 8.51541C51.1071 5.93543 47.5419 3.87729 43.2891 2.32638C39.0217 0.775459 34.7835 0 30.5501 0C24.722 0 19.4889 1.20952 14.8508 3.63344C10.2126 6.05735 6.57433 9.42255 3.94069 13.7242C1.31194 18.0355 0 22.8687 0 28.2286C0 33.5886 1.26317 38.5047 3.7895 42.8112C6.31584 47.1128 9.80784 50.4975 14.2753 52.9409C18.7281 55.3892 23.771 56.6182 29.3943 56.6182Z" fill="#1E2864"/>
<path d="M140.824 27.6921L162.171 55.3842H177.173V1.16064H160.937V29.0089L139.512 1.16064H124.5V55.3842H140.824V27.6921Z" fill="#1E2864"/>
<path d="M295.644 45.3618C297.736 41.7771 298.775 37.6169 298.775 32.8764V1.16064H280.832V32.8764C280.832 35.5052 280.135 37.6316 278.745 39.2556C277.35 40.8846 275.599 41.6942 273.482 41.6942C271.366 41.6942 269.459 40.8651 267.913 39.2166C266.367 37.5682 265.591 35.4515 265.591 32.8764V1.16064H247.648V32.8764C247.648 37.6218 248.721 41.782 250.862 45.3618C252.999 48.9513 256.013 51.7215 259.909 53.6772C263.801 55.6378 268.303 56.6181 273.409 56.6181C278.516 56.6181 282.973 55.6378 286.792 53.6772C290.606 51.7215 293.561 48.9513 295.649 45.3618H295.644Z" fill="#1E2864"/>
<path d="M330.619 40.4554V1.16064H312.676V55.3842H353.209V40.4554H330.619Z" fill="#1E2864"/>
<path d="M243.429 1.16064H222.779L206.607 20.9568V1.16064H188.664V55.3842H206.607V42.2307L211.718 36.505L223.165 55.3842H244.59L224.013 22.815L243.429 1.16064Z" fill="#1E2864"/>
<path d="M94.686 80.1062C93.6033 80.3647 92.5499 80.4964 91.5306 80.4964C90.3405 80.4964 89.1262 80.3111 87.8922 79.9453L87.5655 79.165L94.847 70.6788L95.3688 69.1181L94.5251 68.8889L86.3316 78.3163L85.9414 80.4281L86.6583 81.2085L89.292 81.8279L95.242 81.1109L94.6909 80.1014L94.686 80.1062Z" fill="#1E2864"/>
<path d="M127.373 73.2783C127.709 73.2588 128.06 73.2247 128.431 73.1808L128.592 72.6297L122.51 71.5226H119.389L117.214 72.3029L116.824 74.0245L117.604 74.2538L119.394 72.9223H120.237L120.564 73.571L114.712 80.1063L114.551 81.3743L115.785 81.8279L116.663 80.1063C119.13 78.0677 121.159 75.673 122.739 72.9223C123.91 73.1808 125.1 73.3125 126.314 73.3125C126.68 73.3125 127.036 73.3027 127.373 73.2783Z" fill="#1E2864"/>
<path d="M37.217 76.5265L36.6025 75.517H35.3686L30.4622 77.9214L31.306 74.8683L30.1989 74.5757L27.4043 79.8722L28.965 80.2624L35.5978 77.2093L35.9246 77.7604C35.0126 78.5164 34.559 79.287 34.559 80.0673C34.559 80.5452 34.7199 81.0232 35.0467 81.4963L36.3148 81.8231L36.4464 79.9356L37.2268 78.4725V76.5216L37.217 76.5265Z" fill="#1E2864"/>
<path d="M100.669 76.2682L98.1674 76.951L97.4846 76.1707L97.7138 73.0493L96.6067 72.4299L96.0849 74.2198L96.3775 77.5021L97.8748 78.6726L100.216 77.9898L100.83 78.38L93.2903 88.6853L91.8613 93.299L92.5783 94.372H93.6854L93.978 93.4307L93.4269 92.031C94.1194 90.2313 94.8315 88.6219 95.5582 87.2027C96.2848 85.7834 97.0847 84.452 97.9626 83.2034C98.8405 81.9598 99.8305 80.7259 100.938 79.5115C102.045 78.2971 103.313 77.0095 104.742 75.6439L104.805 74.3125L103.893 73.9223L100.674 76.2633L100.669 76.2682Z" fill="#1E2864"/>
<path d="M85.9397 76.5265L85.3252 75.517H84.0913L79.1849 77.9214L80.0286 74.8683L78.9215 74.5757L76.127 79.8722L77.6876 80.2624L84.3205 77.2093L84.6472 77.7604C83.7352 78.5164 83.2817 79.287 83.2817 80.0673C83.2817 80.5452 83.4426 81.0232 83.7694 81.4963L85.0374 81.8231L85.1691 79.9356L85.9494 78.4725V76.5216L85.9397 76.5265Z" fill="#1E2864"/>
<path d="M45.5732 73.6342L43.4614 73.1807C39.3013 74.5267 37.2188 77.0384 37.2188 80.7207V80.8182L38.3259 82.0521H40.2767L42.9103 80.9791C45.3586 79.8281 46.6072 78.0529 46.6511 75.6485L45.5781 73.6342H45.5732ZM39.0086 80.589L38.6185 79.7111L42.0666 75.5168L43.7882 74.7365L45.1879 74.9657L45.4172 76.6873C43.876 79.0722 41.7447 80.3695 39.0135 80.589H39.0086Z" fill="#1E2864"/>
<path d="M75.0537 73.6344L72.9419 73.1808C68.7817 74.5269 66.6992 77.0386 66.6992 80.7208V80.8183L67.8063 82.0522H69.7572L72.3908 80.9793C74.8391 79.8283 76.0876 78.053 76.1315 75.6486L75.0586 73.6344H75.0537ZM68.4891 80.5891L68.099 79.7112L71.5471 75.5169L73.2687 74.7366L74.6684 74.9658L74.8976 76.6874C73.3565 79.0723 71.2252 80.3696 68.494 80.5891H68.4891Z" fill="#1E2864"/>
<path d="M51.4855 71.5226L49.3055 72.3029L48.9153 74.0245L49.6956 74.2538L51.4855 72.9223H52.3293L52.656 73.571L46.8035 80.1063L46.6426 81.3743L47.8765 81.8279L48.7544 80.1063C51.2271 78.0677 53.251 75.673 54.8361 72.9223C56.0066 73.1808 57.1966 73.3125 58.411 73.3125C58.7817 73.3125 59.1328 73.3027 59.4693 73.2783C59.8059 73.2588 60.157 73.2247 60.5277 73.1808L60.6886 72.6297L54.6118 71.5226H51.4904H51.4855Z" fill="#1E2864"/>
<path d="M201.892 73.8636L202.121 72.6296L203.682 71.5225L203.389 73.1808L199.487 76.7557L199.229 77.9896C200.117 80.2672 201.838 81.545 204.399 81.8279L204.628 80.6574L202.287 79.3259L201.053 77.6043L204.789 73.7026L205.179 70.1277L204.072 69.4108L192.533 79.877L192.143 81.3743L193.376 81.506C196.454 79.2284 199.292 76.6825 201.892 73.8684V73.8636Z" fill="#1E2864"/>
<path d="M255.393 72.4645L252.433 77.6001L249.77 79.9411L248.697 79.4875L247.819 77.8634L245.317 78.9364L245.478 74.6445L244.635 73.2448L243.854 73.4058L243.693 80.8823L244.244 81.4335H245.478L247.137 80.102L248.697 81.7602L249.931 81.8919C253.267 79.6143 255.296 76.5515 256.013 72.6937L255.393 72.4645Z" fill="#1E2864"/>
<path d="M280.982 80.2676L279.095 78.6435C279.27 75.3271 281.065 73.0105 284.494 71.6888L286.967 71.918L287.127 71.1377L286.284 69.9672H284.884L281.665 71.6888C278.914 73.1422 277.539 75.2978 277.539 78.1558V78.4826C278.08 80.7602 279.563 81.8965 281.992 81.8965C282.167 81.8965 282.343 81.8917 282.528 81.8819C282.714 81.8722 282.889 81.8575 283.065 81.8331L286.445 81.3796L287.518 80.7309V80.1164L280.982 80.2773V80.2676Z" fill="#1E2864"/>
<path d="M265.051 71.7469C261.432 72.1615 258.886 73.8051 257.413 76.6875H256.34L256.014 77.7604L258.355 81.2036L260.076 81.823H263.261L267.26 80.6525V79.7112L260.627 80.4916L259.067 79.8722L258.35 78.4725C262.012 77.8677 265.153 76.3265 267.777 73.8587V72.9174L266.865 71.7469H265.046H265.051ZM263.49 75.1268L259.754 76.1363V75.9754L263.105 73.8636L265.314 73.1808L266.324 73.4734L263.495 75.1317L263.49 75.1268Z" fill="#1E2864"/>
<path d="M303.666 78.7067L298.203 80.1064L296.545 79.7163L299.208 75.8146L299.276 74.5807L298.496 73.7028L298.203 72.2397L296.545 71.3618C293.034 73.0103 290.151 75.5122 287.898 78.8725L287.508 80.6624L288.449 81.8329H289.781L294.463 78.8725H294.984V80.4332L295.535 81.116L298.037 81.6671L303.046 79.7163L303.661 78.7067H303.666ZM292.907 78.4775L289.464 79.9406L289.303 79.5505L294.082 74.4149L296.257 73.0152L297.101 73.4687L297.262 75.2586L292.907 78.4775Z" fill="#1E2864"/>
<path d="M302.953 79.8771L302.562 81.3744L303.796 81.5061C306.874 79.2285 309.712 76.6826 312.312 73.8686L312.541 72.6347L314.102 71.5276L313.809 73.1858L309.907 76.7607L309.649 77.9946C310.537 80.2722 312.258 81.55 314.819 81.8329L315.048 80.6624L312.707 79.3309L311.473 77.6093L315.209 73.7076L315.599 70.1327L314.492 69.4158L302.953 79.882V79.8771Z" fill="#1E2864"/>
<path d="M325.581 71.7473C321.962 72.1619 319.417 73.8055 317.939 76.6878H316.866L316.539 77.7608L318.88 81.204L320.602 81.8234H323.786L327.786 80.6529V79.7116L321.153 80.4919L319.592 79.8726L318.875 78.4728C322.538 77.8681 325.679 76.3269 328.303 73.8591V72.9178L327.391 71.7473H325.571H325.581ZM324.021 75.1271L320.285 76.1367V75.9758L323.635 73.864L325.845 73.1812L326.849 73.4738L324.021 75.132V75.1271Z" fill="#1E2864"/>
<path d="M179.755 75.522H178.521L173.615 77.9264L174.458 74.8733L173.351 74.5807L170.557 79.8772L172.117 80.2674L178.75 77.2143L179.077 77.7654C178.165 78.5214 177.711 79.292 177.711 80.0723C177.711 80.5503 177.872 81.0282 178.199 81.5013L179.467 81.8281L179.599 79.9406L180.379 78.4775V76.5267L179.765 75.5171L179.755 75.522Z" fill="#1E2864"/>
<path d="M135.152 78.6383L132.645 75.4194H130.86L128.519 77.0776L128.192 76.6875L140.122 59.6518L139.21 59.2616C133.62 65.8262 128.514 72.776 123.9 80.1014V81.2085L124.842 81.8279L131.245 76.9216L132.416 77.3751L133.879 79.8771H136.157L137.264 79.1602L137.103 78.4774L135.152 78.6383Z" fill="#1E2864"/>
<path d="M161.844 79.8767L161.127 78.477C164.79 77.8722 167.931 76.3311 170.555 73.8632V72.922L169.643 71.7515H167.823C164.205 72.166 161.659 73.8096 160.181 76.692H159.108L158.781 77.7649L161.122 81.2082L162.844 81.8276H166.029L170.028 80.6571V79.7158L163.395 80.4961L161.834 79.8767H161.844ZM162.527 75.975L165.877 73.8632L168.087 73.1805L169.091 73.4731L166.263 75.1313L162.527 76.1409V75.9799V75.975Z" fill="#1E2864"/>
<path d="M183.43 79.8767L182.713 78.477C186.376 77.8722 189.517 76.3311 192.14 73.8632V72.922L191.228 71.7515H189.409C185.791 72.166 183.245 73.8096 181.767 76.692H180.694L180.367 77.7649L182.708 81.2082L184.43 81.8276H187.615L191.614 80.6571V79.7158L184.981 80.4961L183.42 79.8767H183.43ZM184.113 75.975L187.463 73.8632L189.673 73.1805L190.677 73.4731L187.849 75.1313L184.113 76.1409V75.9799V75.975Z" fill="#1E2864"/>
<path d="M146.305 71.7473C142.686 72.1619 140.14 73.8055 138.662 76.6878H137.589L137.268 77.7608L139.609 81.204L141.33 81.8234H144.515L148.514 80.6529V79.7116L141.881 80.4919L140.321 79.8726L139.604 78.4728C143.266 77.8681 146.407 76.3269 149.031 73.8591V72.9178L148.119 71.7473H146.3H146.305ZM144.744 75.1271L141.008 76.1367V75.9758L144.359 73.864L146.568 73.1812L147.578 73.4738L144.749 75.132L144.744 75.1271Z" fill="#1E2864"/>
<path d="M229.973 77.2771L230.69 81.4031L228.027 85.0756L228.969 85.3048L231.212 83.6807L232.314 80.0717L231.373 77.8282L229.973 77.2771Z" fill="#1E2864"/>
<path d="M209.562 82.0527C210.752 78.6728 212.806 75.8441 215.707 73.5665L216.976 73.6982L217.497 73.1763L218.214 69.7965L216.815 67.8457L215.937 67.714L211.128 70.6744C208.246 72.1717 206.856 74.3029 206.968 77.078L208.299 77.99H209.86V78.4777L207.748 82.4428L204.012 84.9448C199.915 88.6953 197.838 93.2456 197.77 98.6007L198.647 100H199.33L201.115 98.4397L203.066 95.255L208.299 84.3985L211.26 82.8379L211.128 82.2185L209.567 82.0575L209.562 82.0527ZM208.782 76.3611L208.455 75.9709L211.416 72.2985L215.937 69.4063L216.654 69.5673L216.815 70.8353L216.493 71.6157L214.639 72.2351L210.967 75.81L208.787 76.3611H208.782ZM201.369 95.411L199.159 97.5911V96.6498C199.833 91.7532 202.096 87.9052 205.953 85.1106L206.441 85.5008L201.369 95.4159V95.411Z" fill="#1E2864"/>
<path d="M222.272 76.268L219.77 76.9508L219.087 76.1704L219.316 73.0491L218.209 72.4297L217.687 74.2196L217.98 77.5019L219.472 78.6724L221.813 77.9896L222.428 78.3798L214.888 88.6851L213.459 93.2988L214.176 94.3718H215.283L215.576 93.4305L215.025 92.0307C215.717 90.2311 216.429 88.6217 217.156 87.2024C217.883 85.7832 218.682 84.4517 219.56 83.2032C220.438 81.9595 221.428 80.7256 222.535 79.5112C223.642 78.2968 224.91 77.0093 226.339 75.6437L226.408 74.3122L225.496 73.9221L222.277 76.2631L222.272 76.268Z" fill="#1E2864"/>
</g>
<defs>
<clipPath id="clip0_2848_248585">
<rect width="353.209" height="100" fill="white"/>
</clipPath>
</defs>
</svg>
